{
	"asset":
	{
		"version": "2.0",
		"generator": "Unreal Engine 5.3.2"
	},
	"scene": 0,
	"accessors": [
		{
			"bufferView": 0,
			"count": 11904,
			"type": "SCALAR",
			"componentType": 5123
		},
		{
			"bufferView": 1,
			"count": 2333,
			"type": "VEC3",
			"componentType": 5126,
			"min": [ -1.5999999, -1.5999999, -1.5999999 ],
			"max": [ 1.5999999, 1.5999999, 1.5999999 ]
		},
		{
			"bufferView": 2,
			"count": 2333,
			"type": "VEC3",
			"componentType": 5120,
			"normalized": true
		},
		{
			"bufferView": 3,
			"count": 2333,
			"type": "VEC4",
			"componentType": 5120,
			"normalized": true
		},
		{
			"bufferView": 4,
			"count": 2333,
			"type": "VEC2",
			"componentType": 5126
		},
		{
			"bufferView": 5,
			"count": 2333,
			"type": "VEC2",
			"componentType": 5126
		}
	],
	"buffers": [
		{
			"uri": "old_conreat2.bin",
			"byteLength": 107796
		}
	],
	"bufferViews": [
		{
			"buffer": 0,
			"byteLength": 23808,
			"target": 34963
		},
		{
			"buffer": 0,
			"byteLength": 27996,
			"byteOffset": 23808,
			"target": 34962
		},
		{
			"buffer": 0,
			"byteLength": 9332,
			"byteOffset": 51804,
			"byteStride": 4,
			"target": 34962
		},
		{
			"buffer": 0,
			"byteLength": 9332,
			"byteOffset": 61136,
			"target": 34962
		},
		{
			"buffer": 0,
			"byteLength": 18664,
			"byteOffset": 70468,
			"target": 34962
		},
		{
			"buffer": 0,
			"byteLength": 18664,
			"byteOffset": 89132,
			"target": 34962
		}
	],
	"images": [
		{
			"uri": "old_conreat2_MetallicRoughness.png"
		},
		{
			"uri": "finla_without_mrsh_ground_initialShadingGroup_BaseColor.png"
		},
		{
			"uri": "finla_without_mrsh_ground_initialShadingGroup_Normal.png"
		}
	],
	"materials": [
		{
			"name": "old_conreat2",
			"pbrMetallicRoughness":
			{
				"baseColorTexture":
				{
					"index": 0
				},
				"metallicRoughnessTexture":
				{
					"index": 1
				}
			},
			"normalTexture":
			{
				"index": 2
			},
			"doubleSided": true
		}
	],
	"meshes": [
		{
			"name": "EditorSphere",
			"primitives": [
				{
					"attributes":
					{
						"POSITION": 1,
						"NORMAL": 2,
						"TANGENT": 3,
						"TEXCOORD_0": 4,
						"TEXCOORD_1": 5
					},
					"indices": 0,
					"material": 0
				}
			]
		}
	],
	"nodes": [
		{
			"mesh": 0
		}
	],
	"samplers": [
		{
			"minFilter": 9987,
			"magFilter": 9729
		}
	],
	"scenes": [
		{
			"nodes": [ 0 ]
		}
	],
	"textures": [
		{
			"name": "finla_without_mrsh_ground_initialShadingGroup_BaseColor",
			"sampler": 0,
			"source": 1
		},
		{
			"name": "old_conreat2_MetallicRoughness",
			"sampler": 0,
			"source": 0
		},
		{
			"name": "finla_without_mrsh_ground_initialShadingGroup_Normal",
			"sampler": 0,
			"source": 2
		}
	],
	"extensionsUsed": [
		"KHR_mesh_quantization"
	],
	"extensionsRequired": [
		"KHR_mesh_quantization"
	]
}